<svg xmlns="http://www.w3.org/2000/svg" xmlns:xlink="http://www.w3.org/1999/xlink" width="66.396" height="66.396" viewBox="0 0 66.396 66.396"><defs><linearGradient id="a" x1="46.31" x2="68.33" y1="44.32" y2="66.34" gradientUnits="userSpaceOnUse"><stop offset="0" stop-color="#006a6f"/><stop offset=".01" stop-color="#016c71"/><stop offset=".18" stop-color="#138790"/><stop offset=".36" stop-color="#209da7"/><stop offset=".54" stop-color="#2aacb8"/><stop offset=".75" stop-color="#30b5c2"/><stop offset="1" stop-color="#32b8c6"/></linearGradient><linearGradient xlink:href="#a" id="c" x1="65.56" x2="45.14" y1="67.55" y2="47.13" gradientTransform="translate(-23.492 -23.492)"/><linearGradient xlink:href="#a" id="b" x1="46.31" x2="68.33" y1="44.32" y2="66.34" gradientTransform="translate(-23.492 -23.492)" gradientUnits="userSpaceOnUse"/></defs><path fill="url(#b)" d="M60.658 28.438c-3.08-17.5-7.7-25.81-17.56-27.9l-16.48 16.49h8.7c4.92 0 8.9 3.99 8.9 8.9v18.98l-20.94 20.95c4.16.88 9.26.65 15.58-.47 21.26-3.75 26.14-12.22 21.78-36.96z" style="fill:url(#b)"/><path fill="url(#c)" d="M39.778 49.368h-8.7c-4.92 0-8.9-3.99-8.9-8.9v-18.98L43.118.538c-4.16-.88-9.26-.65-15.58.47-21.26 3.75-26.14 12.22-21.78 36.96 3.08 17.5 7.7 25.81 17.56 27.9l16.48-16.49z" style="fill:url(#c)"/></svg>